<svg xmlns="http://www.w3.org/2000/svg" width="512" height="512" viewBox="0 0 512 512"><rect width="512" height="512" fill="#f3f5f9"/><circle cx="256" cy="256" r="236" fill="#e8e4ff"/><defs><linearGradient id="t72.39999999999998-72.39999999999998" x2="1" y2="1"><stop stop-color="#7358dc"/><stop offset="1" stop-color="#a875eb"/></linearGradient></defs>
    <g transform="translate(72.39999999999998 72.39999999999998)"><rect width="172.8" height="172.8" rx="34.56" fill="url(#t72.39999999999998-72.39999999999998)"/>
    <svg x="27.648000000000003" y="27.648000000000003" width="117.50400000000002" height="117.50400000000002" viewBox="0 0 48 48"><g transform="rotate(0 24 24)"><path d="M9 24h28M27 13l11 11-11 11" fill="none" stroke="white" stroke-width="4" stroke-linecap="round" stroke-linejoin="round"/></g></svg></g><defs><linearGradient id="t266.79999999999995-72.39999999999998" x2="1" y2="1"><stop stop-color="#257fd5"/><stop offset="1" stop-color="#22b4cf"/></linearGradient></defs>
    <g transform="translate(266.79999999999995 72.39999999999998)"><rect width="172.8" height="172.8" rx="34.56" fill="url(#t266.79999999999995-72.39999999999998)"/>
    <svg x="27.648000000000003" y="27.648000000000003" width="117.50400000000002" height="117.50400000000002" viewBox="0 0 48 48"><g transform="rotate(270 24 24)"><path d="M9 24h28M27 13l11 11-11 11" fill="none" stroke="white" stroke-width="4" stroke-linecap="round" stroke-linejoin="round"/></g></svg></g><defs><linearGradient id="t72.39999999999998-266.79999999999995" x2="1" y2="1"><stop stop-color="#c64b8a"/><stop offset="1" stop-color="#ee7f93"/></linearGradient></defs>
    <g transform="translate(72.39999999999998 266.79999999999995)"><rect width="172.8" height="172.8" rx="34.56" fill="url(#t72.39999999999998-266.79999999999995)"/>
    <svg x="27.648000000000003" y="27.648000000000003" width="117.50400000000002" height="117.50400000000002" viewBox="0 0 48 48"><g transform="rotate(90 24 24)"><path d="M9 24h28M27 13l11 11-11 11" fill="none" stroke="white" stroke-width="4" stroke-linecap="round" stroke-linejoin="round"/></g></svg></g><defs><linearGradient id="t266.79999999999995-266.79999999999995" x2="1" y2="1"><stop stop-color="#178b85"/><stop offset="1" stop-color="#47baa2"/></linearGradient></defs>
    <g transform="translate(266.79999999999995 266.79999999999995)"><rect width="172.8" height="172.8" rx="34.56" fill="url(#t266.79999999999995-266.79999999999995)"/>
    <svg x="27.648000000000003" y="27.648000000000003" width="117.50400000000002" height="117.50400000000002" viewBox="0 0 48 48"><g transform="rotate(180 24 24)"><path d="M9 24h28M27 13l11 11-11 11" fill="none" stroke="white" stroke-width="4" stroke-linecap="round" stroke-linejoin="round"/></g></svg></g></svg>